<svg width="240" height="273" viewBox="0 0 240 273" fill="none" xmlns="http://www.w3.org/2000/svg">
<path fill-rule="evenodd" clip-rule="evenodd" d="M86.7079 51.4502L92.4086 52.7921L100.694 54.7404L103.611 55.4263L104.183 55.5605L106.539 56.1171L102.473 62.6826L97.4383 70.8136L107.12 64.8197L112.135 61.7134L113.601 67.9409L120.216 96.0666L127.84 63.6667L128.298 61.7134L138.72 68.1646L142.994 70.8136L133.894 56.1171L139.311 54.8398L141.419 54.3428L145.067 53.4879L153.342 51.5397L158.317 50.3667L168.247 48.0308L151.07 43.9901L148.809 43.4583L148.307 43.3391L137.234 40.7347L133.894 39.9495L135.33 37.6384L137.025 34.8999L139.962 30.1534L140.082 29.9596L142.994 25.253L138.789 27.8573L132.607 31.6892L131.931 32.1067L128.298 34.3532L126.652 27.3652L125.186 21.1278L121.568 5.74541L120.216 0L117.209 12.7731L112.527 32.6932L112.135 34.3532L111.111 33.722L106.136 30.6405L97.4383 25.253L103.452 34.9695L104.009 35.869L105.296 37.9465L106.539 39.9495L100.624 41.3411L99.312 41.6492L88.4077 44.2188L72.1854 48.0308L86.7079 51.4502ZM218.609 175.563L240 109.714L162.034 57.305L146.493 60.6697L224.543 114.739L209.752 160.265L218.609 175.563ZM158.242 87.6274L145.35 79.6753L139.689 76.1664L132.457 71.6933L165.354 128.67C164.122 127.676 162.81 126.682 161.428 125.718C143.725 113.049 115.818 100.371 80.4754 125.33L109.019 75.898L108.025 71.6586L100.743 76.1664L100.49 76.3255L87.5976 84.3074L49.7306 149.912L44.3629 159.206L39.2238 167.854L10.2582 218.236H41.7735L51.1023 246.958H67.593L77.2449 272.748H170.185L179.236 246.958H195.418L204.747 218.236H233.653L158.242 87.6274ZM93.8499 254.185C93.8555 255.073 93.6778 255.953 93.3281 256.769C92.9927 257.566 92.499 258.286 91.8768 258.886C91.2455 259.499 90.5011 259.984 89.685 260.313C88.8141 260.658 87.8833 260.827 86.9465 260.81C86.0098 260.827 85.079 260.658 84.208 260.313C83.3991 259.986 82.6615 259.505 82.0361 258.896C81.4262 258.298 80.9399 257.585 80.6047 256.799C80.2638 255.984 80.0947 255.108 80.1077 254.224V254.185C80.0951 253.298 80.2643 252.419 80.6047 251.6C80.9426 250.805 81.436 250.085 82.0559 249.483C82.6896 248.874 83.4335 248.392 84.2478 248.061C85.1187 247.716 86.0495 247.547 86.9863 247.564C87.923 247.548 88.8537 247.717 89.7248 248.061C90.5334 248.387 91.2711 248.866 91.8967 249.473C92.5093 250.071 92.996 250.786 93.3281 251.575C93.6779 252.388 93.8555 253.265 93.8499 254.15V254.185ZM105.008 260.586L102.433 256.714H100.893V260.586H97.3489V247.803H103.378C104.221 247.784 105.061 247.909 105.863 248.171C106.489 248.379 107.059 248.73 107.528 249.195C107.914 249.585 108.214 250.052 108.409 250.566C108.605 251.079 108.69 251.628 108.661 252.177V252.211C108.695 253.083 108.443 253.941 107.945 254.657C107.455 255.321 106.791 255.837 106.027 256.148L109.078 260.621L105.008 260.586ZM121.349 260.586L120.42 258.305H115.49L114.575 260.586H110.833L116.3 247.714H119.714L125.151 260.586H121.349ZM138.034 259.095C137.668 259.45 137.257 259.756 136.811 260.005C136.328 260.272 135.811 260.476 135.276 260.611C134.651 260.763 134.01 260.836 133.367 260.83C132.485 260.834 131.61 260.665 130.792 260.333C130.01 260.016 129.299 259.546 128.7 258.951C128.101 258.348 127.624 257.636 127.294 256.854C126.951 256.016 126.782 255.119 126.797 254.214V254.175C126.785 253.283 126.954 252.399 127.294 251.575C127.618 250.785 128.095 250.066 128.695 249.458C129.301 248.846 130.024 248.364 130.822 248.042C131.678 247.699 132.594 247.53 133.516 247.545C134.118 247.538 134.719 247.603 135.305 247.738C135.825 247.852 136.326 248.036 136.796 248.285C137.232 248.518 137.638 248.803 138.004 249.135C138.359 249.46 138.68 249.82 138.963 250.208L136.294 252.276C135.962 251.841 135.555 251.469 135.092 251.178C134.61 250.897 134.059 250.758 133.501 250.775C133.075 250.77 132.654 250.862 132.269 251.043C131.901 251.213 131.574 251.459 131.309 251.764C131.034 252.08 130.82 252.444 130.678 252.838C130.526 253.26 130.449 253.706 130.45 254.155V254.19C130.448 254.647 130.525 255.101 130.678 255.531C130.818 255.931 131.032 256.3 131.309 256.62C131.576 256.924 131.902 257.169 132.269 257.341C132.654 257.521 133.076 257.611 133.501 257.604C133.806 257.608 134.11 257.571 134.406 257.495C134.67 257.427 134.923 257.32 135.156 257.177C135.385 257.033 135.598 256.866 135.792 256.68C136.004 256.481 136.203 256.27 136.389 256.048L139.053 257.947C138.746 258.357 138.405 258.741 138.034 259.095ZM151.92 260.586H142.189V247.803H145.728V257.485H151.92V260.586ZM165.449 260.586H155.066V247.803H165.349V250.82H158.575V252.753H164.708V255.546H158.575V257.574H165.439L165.449 260.586ZM87.359 135.574C112.771 117.517 128.392 117.378 153.998 135.574C157.734 138.237 161.277 141.162 164.599 144.326C129.267 178.028 101.837 163.366 87.359 153.078C83.6245 150.415 80.0835 147.49 76.7628 144.326C80.0833 141.161 83.6243 138.237 87.359 135.574ZM185.881 233.807H60.6598L49.835 203.887H35.1981L36.3909 201.671L65.7491 150.817C70.1171 155.264 74.8613 159.324 79.9288 162.954C85.5093 166.996 91.5444 170.371 97.9105 173.008C107.17 176.766 122.875 181.358 143.456 173.008C149.821 170.37 155.854 166.996 161.433 162.954C167.132 158.886 172.411 154.261 177.193 149.147L200.339 189.236L208.788 203.887H197.511L185.881 233.807ZM78.3185 217.585C78.2485 217.806 78.1672 218.023 78.0749 218.236C77.8994 218.639 77.6846 219.023 77.4338 219.384L78.8055 220.542L76.9417 222.61L75.4805 221.298C74.897 221.671 74.2649 221.962 73.6019 222.162C72.8991 222.374 72.1687 222.479 71.4349 222.476C70.4591 222.486 69.491 222.301 68.587 221.934C67.7424 221.59 66.9739 221.084 66.3257 220.443C65.691 219.82 65.1845 219.079 64.8346 218.261V218.226C64.4786 217.39 64.2976 216.49 64.3028 215.582V215.547C64.2984 214.623 64.4828 213.708 64.8445 212.858C65.1261 212.201 65.5103 211.592 65.9827 211.054C66.102 210.915 66.2262 210.781 66.3555 210.657C67.0105 210.017 67.7836 209.51 68.6318 209.166C69.5374 208.798 70.5071 208.613 71.4846 208.624C72.4604 208.614 73.4285 208.798 74.3324 209.166C75.1755 209.509 75.9424 210.016 76.5888 210.657C76.6773 210.742 76.7615 210.831 76.8428 210.922L76.8715 210.955L76.9141 211.003C76.9317 211.024 76.9492 211.044 76.9666 211.064C77.4291 211.593 77.8048 212.192 78.0799 212.839C78.4438 213.684 78.6283 214.597 78.6216 215.517V215.557C78.6252 216.245 78.5229 216.929 78.3185 217.585ZM74.6555 216.924C74.8098 216.511 74.8873 216.073 74.8841 215.632L74.8742 215.592C74.8754 215.122 74.7912 214.655 74.6257 214.215C74.4671 213.789 74.2293 213.396 73.9249 213.057C73.6169 212.722 73.2452 212.452 72.8315 212.262C72.3937 212.061 71.9167 211.959 71.4349 211.964C70.9593 211.957 70.4884 212.059 70.0582 212.262C69.6549 212.45 69.2933 212.717 68.9946 213.047C68.695 213.379 68.4621 213.766 68.3087 214.185C68.1501 214.625 68.071 215.09 68.0751 215.557V215.592C68.0723 216.062 68.1548 216.528 68.3187 216.969C68.4751 217.392 68.7113 217.782 69.0145 218.117C69.0344 218.142 69.0575 218.165 69.0802 218.187L69.0804 218.187C69.0973 218.203 69.114 218.219 69.1288 218.236C69.4073 218.514 69.7318 218.741 70.088 218.907C70.5231 219.105 70.9965 219.206 71.4746 219.2C71.9352 219.203 72.3922 219.119 72.8215 218.952L71.9816 218.236L70.9876 217.376L72.8514 215.289L74.6555 216.924ZM91.2904 211.064V216.392C91.3231 217.044 91.1492 217.689 90.7934 218.236C90.7663 218.273 90.738 218.309 90.7085 218.345C90.6936 218.362 90.6784 218.38 90.6629 218.397L90.6475 218.414L90.6351 218.428C90.625 218.438 90.6148 218.449 90.6045 218.46C90.3677 218.686 90.0875 218.861 89.7808 218.976C89.474 219.09 89.1473 219.141 88.8203 219.126C88.4907 219.141 88.1616 219.087 87.8542 218.967C87.5468 218.847 87.2681 218.664 87.036 218.43C86.976 218.37 86.9212 218.305 86.8719 218.236C86.5066 217.658 86.3327 216.98 86.375 216.298V208.897H82.6325V216.352C82.6295 216.979 82.6944 217.604 82.8263 218.216C82.8858 218.501 82.9638 218.781 83.0599 219.056C83.3164 219.776 83.7367 220.426 84.2875 220.955C84.8398 221.469 85.503 221.85 86.2258 222.068C87.0555 222.319 87.9187 222.441 88.7854 222.431C89.657 222.44 90.525 222.318 91.36 222.068C92.0883 221.849 92.7577 221.469 93.3182 220.955C93.8793 220.421 94.3083 219.764 94.5706 219.036C94.6707 218.769 94.7505 218.495 94.8092 218.216C94.9521 217.573 95.0222 216.916 95.0179 216.258V208.897H91.2755L91.2904 211.064ZM107.11 208.813L108.059 211.064L111.116 218.236L112.796 222.212H108.845L107.851 219.836H102.722L101.772 222.212H97.9006L99.5755 218.236L102.607 211.064L103.557 208.813H107.11ZM105.296 213.181L103.805 216.959H106.787L105.296 213.181ZM125.246 211.064V215.935L121.459 211.064L119.779 208.907H116.34V211.064V218.236V222.202H119.988V218.236V214.911L122.577 218.236L125.668 222.202H128.894V218.236V211.064V208.907H125.246V211.064ZM132.786 212.138V211.064V208.907H144.45V211.064V212.138H140.459V218.236V222.202H136.776V218.236V212.138H132.786ZM156.811 211.064V216.392C156.844 217.044 156.67 217.689 156.314 218.236C156.26 218.316 156.198 218.391 156.13 218.46C155.893 218.686 155.613 218.861 155.306 218.976C155 219.09 154.673 219.141 154.346 219.126C154.015 219.141 153.686 219.087 153.378 218.967C153.069 218.847 152.79 218.664 152.556 218.43C152.5 218.368 152.446 218.304 152.397 218.236C152.03 217.659 151.856 216.98 151.9 216.298V208.897H148.158V216.352C148.156 216.978 148.219 217.603 148.347 218.216C148.406 218.502 148.485 218.782 148.585 219.056C148.838 219.776 149.257 220.427 149.808 220.955C150.36 221.469 151.023 221.85 151.746 222.068C152.578 222.319 153.443 222.441 154.311 222.431C155.182 222.44 156.05 222.318 156.885 222.068C157.613 221.851 158.281 221.47 158.839 220.955C159.402 220.422 159.832 219.765 160.096 219.036C160.192 218.768 160.271 218.494 160.335 218.216C160.476 217.573 160.544 216.916 160.538 216.258V208.897H156.801L156.811 211.064ZM172.079 214.056L173.923 211.064L175.25 208.907H179.146V211.064V218.236V222.202H175.478V218.236V214.568L173.083 218.236L172.079 219.772H172.004L171 218.236L168.625 214.608V218.236V222.202H165.016V218.236V211.064V208.907H168.908L170.235 211.064L172.079 214.056ZM133.987 148.769C130.324 151.756 125.743 153.39 121.016 153.396C116.294 153.396 111.715 151.769 108.051 148.791C104.386 145.812 101.858 141.663 100.893 137.04C103.894 135.172 107.054 133.57 110.336 132.254V132.855C110.334 134.259 110.609 135.65 111.144 136.948C111.68 138.246 112.467 139.425 113.458 140.419C114.45 141.413 115.628 142.201 116.925 142.739C118.222 143.278 119.612 143.555 121.016 143.556C123.846 143.552 126.559 142.426 128.559 140.424C130.56 138.423 131.685 135.71 131.687 132.88C131.687 132.735 131.678 132.592 131.67 132.449V132.448V132.448L131.67 132.446C131.666 132.384 131.662 132.322 131.659 132.26C131.655 132.182 131.652 132.103 131.652 132.025C134.946 133.412 138.116 135.075 141.13 136.995C140.173 141.624 137.65 145.782 133.987 148.769ZM116.533 255.536H119.401L117.975 251.903L116.533 255.536ZM103.199 250.865C103.695 250.836 104.188 250.967 104.605 251.237C104.781 251.369 104.922 251.542 105.014 251.742C105.106 251.942 105.147 252.161 105.132 252.38V252.415C105.14 252.625 105.099 252.834 105.013 253.025C104.927 253.217 104.797 253.385 104.635 253.519C104.229 253.817 103.731 253.963 103.228 253.931H100.893V250.865H103.199ZM89.3222 251.774C89.0266 251.459 88.6742 251.203 88.2834 251.019C87.8642 250.826 87.4076 250.73 86.9465 250.735C86.4911 250.728 86.0397 250.822 85.6245 251.009C85.2372 251.185 84.889 251.436 84.6006 251.749C84.3136 252.064 84.0908 252.432 83.9446 252.833C83.7905 253.255 83.713 253.701 83.7159 254.15V254.185C83.7134 254.635 83.7943 255.081 83.9545 255.502C84.1052 255.905 84.3313 256.276 84.6205 256.595C84.9097 256.916 85.2615 257.175 85.6543 257.355C86.0715 257.548 86.5267 257.645 86.9863 257.639C87.4446 257.643 87.8986 257.55 88.3182 257.365C88.706 257.19 89.0543 256.938 89.3421 256.625C89.6257 256.305 89.8481 255.936 89.9981 255.536C90.1584 255.118 90.2393 254.673 90.2367 254.224V254.185C90.2393 253.736 90.1584 253.291 89.9981 252.872C89.8446 252.467 89.6152 252.094 89.3222 251.774ZM0 109.714L21.3962 175.563L30.2479 160.265L15.4569 114.739L93.512 60.6697L77.9656 57.305L0 109.714Z" fill="white"/>
</svg>
