<?xml version="1.0" encoding="UTF-8"?>
<!DOCTYPE svg PUBLIC "-//W3C//DTD SVG 1.1//EN" "http://www.w3.org/Graphics/SVG/1.1/DTD/svg11.dtd">
<svg version="1.1" xmlns="http://www.w3.org/2000/svg" xmlns:xlink="http://www.w3.org/1999/xlink" x="0" y="0" width="1522" height="1522" viewBox="0, 0, 1522, 1522">
  <g id="Layer_1">
    <path d="M1516.2,616.9 C1500.2,575.301 1453.8,552.9 1410.6,568.9 L1401,572.098 C1335.4,596.098 1268.2,613.697 1199.4,623.295 L1100.21,280.895 C1074.61,189.698 991.402,127.295 897.005,127.295 L625.005,127.295 C530.604,127.295 447.405,189.697 421.805,280.895 L322.608,623.295 C253.805,612.097 186.608,596.098 121.008,572.098 L111.409,568.9 C69.81,552.9 21.81,575.301 5.81,616.9 C-10.19,658.499 12.211,706.499 53.81,722.499 L61.81,725.697 C193.008,775.295 330.61,800.894 471.41,800.894 L1049.01,800.894 C1189.81,800.894 1327.41,775.295 1457.01,727.295 L1466.61,724.097 C1509.8,706.499 1532.2,660.097 1516.2,616.9 L1516.2,616.9 z" fill="#000000"/>
    <path d="M1313,1145.5 C1313,1283.34 1200.85,1395.5 1063,1395.5 C925.145,1395.5 813,1283.34 813,1145.5 C813,1114.521 818.927,1084.969 829.271,1057.568 C789.131,1042.485 736.864,1042.485 696.724,1057.568 C707.073,1084.969 713,1114.521 713,1145.5 C713,1283.34 600.855,1395.5 463,1395.5 C325.145,1395.5 213,1283.34 213,1145.5 C213,1007.656 325.145,895.5 463,895.5 C552.057,895.5 630.173,942.453 674.467,1012.76 C728.16,991.135 797.841,991.135 851.533,1012.76 C895.825,942.453 973.94,895.5 1063,895.5 C1200.85,895.5 1313,1007.656 1313,1145.5 z" fill="#000000"/>
  </g>
</svg>
